<svg width="180" height="180" viewBox="0 0 180 180" fill="none" xmlns="http://www.w3.org/2000/svg">
<path d="M164.736 64.9337C164.736 64.9337 154.416 68.1937 149.826 74.0237C149.826 74.0237 139.856 74.5537 113.036 66.3437C113.036 66.3437 104.656 62.4437 85.416 64.8337C85.416 64.8337 79.156 66.2537 76.236 68.1037C76.236 68.1037 67.116 73.8437 64.046 79.9237C64.046 79.9237 60.096 87.0737 62.386 97.1337C62.386 97.1337 64.766 102.754 66.976 102.544C66.976 102.544 60.386 90.1937 66.976 82.3037C66.976 82.3037 73.686 70.8937 88.386 71.2437C88.386 71.2437 98.266 70.8937 104.626 72.6537L121.906 77.9337L97.336 132.244C97.336 132.244 94.156 140.124 87.656 141.394L87.566 144.184H106.126C106.126 144.184 109.096 143.004 110.066 140.894L109.976 136.544L105.796 140.364C105.796 140.364 101.206 141.804 102.266 138.514L129.446 80.3637C129.446 80.3637 142.236 82.8337 150.446 82.1237C150.446 82.1237 168.706 81.0637 172.236 71.8037C172.236 71.8137 174.786 63.8737 164.736 64.9337ZM165.526 75.1637C165.526 75.1637 160.936 76.6637 152.906 75.6037C152.906 75.6037 161.996 67.2237 169.056 68.1037C169.056 68.1037 172.676 72.1637 165.526 75.1637Z" fill="#C6996C"/>
<path d="M87.7787 83.5959L105.959 76.3359V82.6259C105.959 82.6259 87.8287 122.916 84.0587 126.216C84.0587 126.216 73.3487 143.746 55.3487 144.806C55.3487 144.806 45.8187 144.456 43.4688 139.276V135.276C43.4688 135.276 53.9387 148.686 68.5287 134.456C68.5287 134.456 78.4087 126.216 85.2387 112.696C85.2387 112.696 93.4787 94.4559 94.6487 90.2259C94.6487 90.2259 95.6187 86.2259 94.9688 85.0159C94.9688 85.0159 93.4987 84.1059 90.8187 86.2559L87.7787 83.5959Z" fill="#C6996C"/>
<path d="M128.935 35.1953C124.425 35.2053 118.455 36.5053 113.355 41.9753C113.355 41.9753 109.045 46.3553 108.985 52.4153C108.935 57.4253 112.905 61.4653 117.905 61.8353C120.545 62.0253 123.875 61.6754 127.745 60.0354C128.275 59.8154 128.775 59.5253 129.255 59.2053C131.735 57.5353 138.865 52.0153 138.435 43.9253C138.185 38.9553 133.915 35.1853 128.935 35.1953ZM126.185 54.0654C125.875 54.2754 125.545 54.4653 125.195 54.6053C122.645 55.6853 120.455 55.9154 118.715 55.7854C115.425 55.5454 112.805 52.8854 112.835 49.5954C112.875 45.6154 115.715 42.7353 115.715 42.7353C119.065 39.1453 123.005 38.2854 125.975 38.2854C129.255 38.2754 132.065 40.7553 132.235 44.0253C132.515 49.3353 127.815 52.9654 126.185 54.0654Z" fill="#C6996C"/>
<path d="M9.17383 115.467V115.25H13.3984V115.467H13.1406C12.9062 115.467 12.7188 115.508 12.5781 115.59C12.4805 115.645 12.4023 115.738 12.3438 115.871C12.3008 115.965 12.2793 116.211 12.2793 116.609V120.5C12.2793 121.262 12.2031 121.816 12.0508 122.164C11.8984 122.508 11.627 122.797 11.2363 123.031C10.8496 123.262 10.3828 123.377 9.83594 123.377C9.16797 123.377 8.62695 123.201 8.21289 122.85C7.80273 122.498 7.59766 122.109 7.59766 121.684C7.59766 121.41 7.68164 121.189 7.84961 121.021C8.01758 120.85 8.22266 120.764 8.46484 120.764C8.70312 120.764 8.90234 120.84 9.0625 120.992C9.22656 121.145 9.30859 121.332 9.30859 121.555C9.30859 121.664 9.29492 121.76 9.26758 121.842C9.25195 121.881 9.18945 121.98 9.08008 122.141C8.97461 122.297 8.92188 122.408 8.92188 122.475C8.92188 122.576 8.97266 122.664 9.07422 122.738C9.22266 122.848 9.41602 122.902 9.6543 122.902C9.82227 122.902 9.96094 122.859 10.0703 122.773C10.1797 122.688 10.2559 122.555 10.2988 122.375C10.3457 122.191 10.3691 121.686 10.3691 120.857V116.609C10.3691 116.203 10.3457 115.949 10.2988 115.848C10.2559 115.746 10.168 115.658 10.0352 115.584C9.90625 115.506 9.73047 115.467 9.50781 115.467H9.17383ZM21.0391 115.25V117.4H20.8281C20.7031 116.904 20.5645 116.549 20.4121 116.334C20.2598 116.115 20.0508 115.941 19.7852 115.812C19.6367 115.742 19.377 115.707 19.0059 115.707H18.4141V121.836C18.4141 122.242 18.4355 122.496 18.4785 122.598C18.5254 122.699 18.6133 122.789 18.7422 122.867C18.875 122.941 19.0547 122.979 19.2812 122.979H19.5449V123.195H15.3848V122.979H15.6484C15.8789 122.979 16.0645 122.938 16.2051 122.855C16.3066 122.801 16.3867 122.707 16.4453 122.574C16.4883 122.48 16.5098 122.234 16.5098 121.836V115.707H15.9355C15.4004 115.707 15.0117 115.82 14.7695 116.047C14.4297 116.363 14.2148 116.814 14.125 117.4H13.9023V115.25H21.0391Z" fill="black"/>
<path d="M34.748 115.068V117.869H34.5312C34.2695 117.104 33.877 116.521 33.3535 116.123C32.8301 115.725 32.2578 115.525 31.6367 115.525C31.043 115.525 30.5488 115.693 30.1543 116.029C29.7598 116.361 29.4805 116.826 29.3164 117.424C29.1523 118.021 29.0703 118.635 29.0703 119.264C29.0703 120.025 29.1602 120.693 29.3398 121.268C29.5195 121.842 29.8086 122.264 30.207 122.533C30.6094 122.803 31.0859 122.938 31.6367 122.938C31.8281 122.938 32.0234 122.918 32.2227 122.879C32.4258 122.836 32.6328 122.775 32.8438 122.697V121.045C32.8438 120.732 32.8223 120.531 32.7793 120.441C32.7363 120.348 32.6465 120.264 32.5098 120.189C32.377 120.115 32.2148 120.078 32.0234 120.078H31.8184V119.861H35.6797V120.078C35.3867 120.098 35.1816 120.139 35.0645 120.201C34.9512 120.26 34.8633 120.359 34.8008 120.5C34.7656 120.574 34.748 120.756 34.748 121.045V122.697C34.2402 122.924 33.7109 123.094 33.1602 123.207C32.6133 123.324 32.0449 123.383 31.4551 123.383C30.7012 123.383 30.0742 123.281 29.5742 123.078C29.0781 122.871 28.6387 122.602 28.2559 122.27C27.877 121.934 27.5801 121.557 27.3652 121.139C27.0918 120.6 26.9551 119.996 26.9551 119.328C26.9551 118.133 27.375 117.123 28.2148 116.299C29.0547 115.475 30.1113 115.062 31.3848 115.062C31.7793 115.062 32.1348 115.094 32.4512 115.156C32.623 115.188 32.9004 115.277 33.2832 115.426C33.6699 115.57 33.8984 115.643 33.9688 115.643C34.0781 115.643 34.1797 115.604 34.2734 115.525C34.3672 115.443 34.4531 115.291 34.5312 115.068H34.748ZM38.9961 119.574V121.801C38.9961 122.23 39.0215 122.502 39.0723 122.615C39.127 122.725 39.2207 122.812 39.3535 122.879C39.4863 122.945 39.7344 122.979 40.0977 122.979V123.195H36.0312V122.979C36.3984 122.979 36.6465 122.945 36.7754 122.879C36.9082 122.809 37 122.719 37.0508 122.609C37.1055 122.5 37.1328 122.23 37.1328 121.801V116.645C37.1328 116.215 37.1055 115.945 37.0508 115.836C37 115.723 36.9082 115.633 36.7754 115.566C36.6426 115.5 36.3945 115.467 36.0312 115.467V115.25H39.7227C40.6836 115.25 41.3867 115.316 41.832 115.449C42.2773 115.582 42.6406 115.828 42.9219 116.188C43.2031 116.543 43.3438 116.961 43.3438 117.441C43.3438 118.027 43.1328 118.512 42.7109 118.895C42.4414 119.137 42.0645 119.318 41.5801 119.439L43.4902 122.129C43.7402 122.477 43.918 122.693 44.0234 122.779C44.1836 122.9 44.3691 122.967 44.5801 122.979V123.195H42.0781L39.5176 119.574H38.9961ZM38.9961 115.678V119.158H39.3301C39.873 119.158 40.2793 119.109 40.5488 119.012C40.8184 118.91 41.0293 118.73 41.1816 118.473C41.3379 118.211 41.416 117.871 41.416 117.453C41.416 116.848 41.2734 116.4 40.9883 116.111C40.707 115.822 40.252 115.678 39.623 115.678H38.9961ZM49.1152 115.139C50.3809 115.092 51.4082 115.461 52.1973 116.246C52.9902 117.031 53.3867 118.014 53.3867 119.193C53.3867 120.201 53.0918 121.088 52.502 121.854C51.7207 122.869 50.6172 123.377 49.1914 123.377C47.7617 123.377 46.6562 122.893 45.875 121.924C45.2578 121.158 44.9492 120.25 44.9492 119.199C44.9492 118.02 45.3496 117.037 46.1504 116.252C46.9551 115.463 47.9434 115.092 49.1152 115.139ZM49.1855 115.514C48.459 115.514 47.9062 115.885 47.5273 116.627C47.2188 117.236 47.0645 118.111 47.0645 119.252C47.0645 120.607 47.3027 121.609 47.7793 122.258C48.1113 122.711 48.5762 122.938 49.1738 122.938C49.5762 122.938 49.9121 122.84 50.1816 122.645C50.5254 122.395 50.793 121.996 50.9844 121.449C51.1758 120.898 51.2715 120.182 51.2715 119.299C51.2715 118.248 51.1738 117.463 50.9785 116.943C50.7832 116.42 50.5332 116.051 50.2285 115.836C49.9277 115.621 49.5801 115.514 49.1855 115.514ZM54.1016 115.25H58.2031V115.467H57.998C57.6895 115.467 57.4766 115.5 57.3594 115.566C57.2461 115.629 57.1641 115.717 57.1133 115.83C57.0664 115.943 57.043 116.227 57.043 116.68V120.57C57.043 121.281 57.0957 121.752 57.2012 121.982C57.3105 122.213 57.4883 122.404 57.7344 122.557C57.9805 122.709 58.291 122.785 58.666 122.785C59.0957 122.785 59.4609 122.689 59.7617 122.498C60.0664 122.303 60.293 122.035 60.4414 121.695C60.5938 121.355 60.6699 120.764 60.6699 119.92V116.68C60.6699 116.324 60.6328 116.07 60.5586 115.918C60.4844 115.766 60.3906 115.66 60.2773 115.602C60.1016 115.512 59.8535 115.467 59.5332 115.467V115.25H62.2812V115.467H62.1172C61.8945 115.467 61.709 115.512 61.5605 115.602C61.4121 115.691 61.3047 115.826 61.2383 116.006C61.1875 116.131 61.1621 116.355 61.1621 116.68V119.697C61.1621 120.631 61.0996 121.305 60.9746 121.719C60.8535 122.133 60.5547 122.514 60.0781 122.861C59.6016 123.209 58.9512 123.383 58.127 123.383C57.4395 123.383 56.9082 123.291 56.5332 123.107C56.0215 122.857 55.6602 122.537 55.4492 122.146C55.2383 121.756 55.1328 121.23 55.1328 120.57V116.68C55.1328 116.223 55.1074 115.939 55.0566 115.83C55.0059 115.717 54.918 115.627 54.793 115.561C54.668 115.494 54.4375 115.463 54.1016 115.467V115.25ZM65.7324 119.598V121.801C65.7324 122.23 65.7578 122.502 65.8086 122.615C65.8633 122.725 65.957 122.812 66.0898 122.879C66.2266 122.945 66.4746 122.979 66.834 122.979V123.195H62.7969V122.979C63.1641 122.979 63.4121 122.945 63.541 122.879C63.6738 122.809 63.7656 122.719 63.8164 122.609C63.8711 122.5 63.8984 122.23 63.8984 121.801V116.645C63.8984 116.215 63.8711 115.945 63.8164 115.836C63.7656 115.723 63.6738 115.633 63.541 115.566C63.4082 115.5 63.1602 115.467 62.7969 115.467V115.25H66.2598C67.4004 115.25 68.2188 115.453 68.7148 115.859C69.2109 116.266 69.459 116.773 69.459 117.383C69.459 117.898 69.2988 118.34 68.9785 118.707C68.6582 119.074 68.2168 119.324 67.6543 119.457C67.2754 119.551 66.6348 119.598 65.7324 119.598ZM65.7324 115.707V119.141C65.8613 119.148 65.959 119.152 66.0254 119.152C66.502 119.152 66.8691 119.012 67.127 118.73C67.3848 118.445 67.5137 118.006 67.5137 117.412C67.5137 116.822 67.3848 116.391 67.127 116.117C66.8691 115.844 66.4844 115.707 65.9727 115.707H65.7324Z" fill="#C5996C"/>
</svg>
